/* XPM */
static char * Colorprogress_xpm[] = {
"21 20 9 1",
" 	c None",
".	c #E0DFE3",
"+	c #9D9DA1",
"@	c #000000",
"#	c #FFFFFF",
"$	c #41DE71",
"%	c #3A3AAB",
"&	c #B15067",
"*	c #F6EE19",
"                     ",
"                     ",
"                     ",
"                     ",
".++++++++++++++++++++",
"+@@@@@@@@@@@@@@@@@@@#",
"+@$$$%%%%#&&&&#&****#",
"+@$$$%%%#%#&&#&&****#",
"+@$$$%%%%#&&#&&&****#",
"+@$$$%%%%%&#&&&&****#",
"+@$$$%%%%%#&&#&&****#",
"+@$$$%%%%#&&#&#&****#",
"+@$$$%%%#%&&&#&&****#",
"+@$$$%%#%%&&&&&&****#",
"+@..................#",
"+####################",
"                     ",
"                     ",
"                     ",
"                     "};
